<?xml version="1.0" encoding="UTF-8" standalone="no"?>
<!DOCTYPE svg PUBLIC "-//W3C//DTD SVG 1.1//EN" "http://www.w3.org/Graphics/SVG/1.1/DTD/svg11.dtd">
<svg width="100%" height="100%" viewBox="0 0 400 400" version="1.1" xmlns="http://www.w3.org/2000/svg" xmlns:xlink="http://www.w3.org/1999/xlink" xml:space="preserve" style="fill-rule:evenodd;clip-rule:evenodd;stroke-linecap:round;stroke-linejoin:round;stroke-miterlimit:1.5;">
    <g id="Cocktail-Icon" transform="matrix(1.25392,0,0,1.91388,-970.533,-763.636)">
        <rect x="774" y="399" width="319" height="209" style="fill:none;"/>
        <clipPath id="_clip1">
            <rect x="774" y="399" width="319" height="209"/>
        </clipPath>
        <g clip-path="url(#_clip1)">
            <g id="Cocktail">
                <g transform="matrix(0.843915,0,0,0.557333,102.243,162.691)">
                    <path d="M985.611,424.001L986.222,424.004L986.832,424.009L987.441,424.015L988.05,424.024L988.659,424.035L989.267,424.047L989.875,424.061L990.482,424.078L991.089,424.096L991.695,424.116L992.301,424.138L992.907,424.161L993.511,424.187L994.116,424.215L994.72,424.244L995.323,424.276L995.926,424.309L996.528,424.344L997.13,424.381L997.732,424.42L998.333,424.46L998.933,424.503L999.533,424.547L1000.13,424.593L1000.73,424.642L1001.33,424.691L1001.93,424.743L1002.52,424.797L1003.12,424.852L1003.72,424.91L1004.31,424.969L1004.91,425.03L1005.5,425.093L1006.1,425.157L1006.69,425.224L1007.28,425.292L1007.88,425.362L1008.47,425.434L1009.06,425.508L1009.65,425.583L1010.24,425.66L1010.83,425.74L1011.42,425.82L1012,425.903L1012.59,425.988L1013.18,426.074L1013.77,426.162L1014.35,426.252L1014.94,426.344L1015.52,426.437L1016.11,426.532L1016.69,426.629L1017.27,426.728L1017.86,426.828L1018.44,426.931L1019.02,427.035L1019.6,427.141L1020.18,427.248L1020.76,427.357L1021.34,427.469L1021.92,427.581L1022.49,427.696L1023.07,427.812L1023.65,427.93L1024.22,428.05L1024.8,428.171L1025.37,428.295L1025.94,428.42L1026.52,428.546L1027.09,428.675L1027.66,428.805L1028.23,428.937L1028.8,429.07L1029.37,429.205L1029.94,429.342L1030.51,429.481L1031.08,429.621L1031.64,429.764L1032.21,429.907L1032.78,430.053L1033.34,430.2L1033.91,430.349L1034.47,430.499L1035.03,430.651L1035.59,430.805L1036.16,430.961L1036.72,431.118L1037.28,431.277L1037.84,431.437L1038.39,431.6L1038.95,431.764L1039.51,431.929L1040.07,432.096L1040.62,432.265L1041.18,432.436L1041.73,432.608L1042.29,432.781L1042.84,432.957L1043.39,433.134L1043.94,433.313L1044.49,433.493L1045.04,433.675L1045.59,433.858L1046.14,434.044L1046.69,434.23L1047.23,434.419L1047.78,434.609L1048.33,434.801L1048.87,434.994L1049.41,435.189L1049.96,435.385L1050.5,435.583L1051.04,435.783L1051.58,435.984L1052.12,436.187L1052.66,436.392L1053.2,436.598L1053.74,436.805L1054.27,437.014L1054.81,437.225L1055.34,437.437L1055.88,437.651L1056.41,437.867L1056.94,438.084L1057.48,438.303L1058.01,438.523L1058.54,438.744L1059.07,438.968L1059.6,439.193L1060.12,439.419L1060.65,439.647L1061.18,439.876L1061.7,440.107L1062.23,440.34L1062.75,440.574L1063.27,440.81L1063.8,441.047L1064.32,441.285L1064.84,441.525L1065.36,441.767L1065.87,442.01L1066.39,442.255L1066.91,442.501L1067.42,442.749L1067.94,442.998L1068.45,443.249L1068.97,443.501L1069.48,443.755L1069.99,444.01L1070.5,444.267L1071.01,444.525L1071.52,444.785L1072.03,445.046L1072.54,445.309L1073.04,445.573L1073.55,445.839L1074.05,446.106L1074.56,446.374L1075.06,446.644L1075.56,446.916L1076.06,447.189L1076.56,447.463L1077.06,447.739L1077.56,448.016L1078.05,448.295L1078.55,448.575L1079.05,448.857L1079.54,449.14L1080.03,449.424L1080.53,449.71L1081.02,449.997L1081.51,450.286L1082,450.576L1082.49,450.868L1082.97,451.161L1083.46,451.456L1083.94,451.751L1084.43,452.049L1084.91,452.347L1085.4,452.648L1085.88,452.949L1086.36,453.252L1086.84,453.556L1087.32,453.862L1087.8,454.169L1088.27,454.477L1088.75,454.787L1089.22,455.098L1089.7,455.411L1090.17,455.725L1090.64,456.04L1091.11,456.357L1091.58,456.675L1092.05,456.995L1092.52,457.315L1092.99,457.638L1093.45,457.961L1093.92,458.286L1094.38,458.612L1094.84,458.94L1095.3,459.269L1095.76,459.599L1096.22,459.93L1096.68,460.263L1097.14,460.598L1097.6,460.933L1098.05,461.27L1098.51,461.608L1098.96,461.948L1099.41,462.289L1099.86,462.631L1100.31,462.974L1100.76,463.319L1101.21,463.665L1101.66,464.013L1102.1,464.361L1102.55,464.711L1102.99,465.063L1103.43,465.415L1103.88,465.769L1104.32,466.124L1104.75,466.481L1105.19,466.838L1105.63,467.197L1106.07,467.558L1106.5,467.919L1106.93,468.282L1107.37,468.646L1107.8,469.011L1108.23,469.378L1108.66,469.746L1109.09,470.115L1109.51,470.485L1109.94,470.857L1110.36,471.23L1110.79,471.604L1111.21,471.979L1111.63,472.356L1112.05,472.733L1112.47,473.112L1112.89,473.493L1113.31,473.874L1113.72,474.257L1114.13,474.641L1114.55,475.026L1114.96,475.412L1115.37,475.8L1115.78,476.189L1116.19,476.579L1116.6,476.97L1117,477.362L1117.41,477.756L1117.81,478.15L1118.21,478.546L1118.62,478.943L1119.02,479.342L1119.42,479.741L1119.81,480.142L1120.21,480.544L1120.61,480.947L1121,481.351L1121.39,481.756L1121.79,482.163L1122.18,482.571L1122.57,482.979L1122.95,483.389L1123.34,483.801L1123.73,484.213L1124.11,484.626L1124.5,485.041L1124.88,485.457L1125.26,485.874L1125.64,486.292L1126.02,486.711L1126.39,487.131L1126.77,487.552L1127.14,487.975L1127.52,488.399L1127.89,488.823L1128.26,489.249L1128.63,489.676L1129,490.104L1129.36,490.534L1129.73,490.964L1130.09,491.395L1130.46,491.828L1130.82,492.261L1131.18,492.696L1131.54,493.132L1131.9,493.569L1132.25,494.007L1132.61,494.446L1132.96,494.886L1133.32,495.327L1133.67,495.769L1134.02,496.213L1134.37,496.657L1134.71,497.102L1135.06,497.549L1135.4,497.997L1135.75,498.445L1136.09,498.895L1136.43,499.346L1136.77,499.797L1137.11,500.25L1137.45,500.704L1137.78,501.159L1138.12,501.615L1138.45,502.072L1138.78,502.53L1139.11,502.989L1139.44,503.449L1139.77,503.91L1140.09,504.372L1140.42,504.835L1140.74,505.299L1141.06,505.764L1141.38,506.23L1141.7,506.697L1142.02,507.166L1142.34,507.635L1142.65,508.105L1142.97,508.576L1143.28,509.048L1143.59,509.521L1143.9,509.995L1144.21,510.47L1144.51,510.946L1144.82,511.423L1145.12,511.901L1145.43,512.38L1145.73,512.86L1146.03,513.341L1146.33,513.822L1146.62,514.305L1146.92,514.789L1147.21,515.274L1147.5,515.759L1147.8,516.246L1148.08,516.733L1148.37,517.222L1148.66,517.711L1148.94,518.201L1149.23,518.693L1149.51,519.185L1149.79,519.678L1150.07,520.172L1150.35,520.667L1150.63,521.163L1150.9,521.659L1151.17,522.157L1151.45,522.656L1151.72,523.155L1151.99,523.656L1152.25,524.157L1152.52,524.659L1152.79,525.162L1153.05,525.666L1153.31,526.171L1153.57,526.677L1153.83,527.183L1154.09,527.691L1154.34,528.199L1154.6,528.708L1154.85,529.218L1155.1,529.729L1155.35,530.241L1155.6,530.754L1155.85,531.267L1156.09,531.782L1156.33,532.297L1156.58,532.813L1156.82,533.33L1157.06,533.848L1157.29,534.367L1157.53,534.886L1157.76,535.406L1158,535.928L1158.23,536.45L1158.46,536.972L1158.69,537.496L1158.91,538.021L1159.14,538.546L1159.36,539.072L1159.58,539.599L1159.8,540.126L1160.02,540.655L1160.24,541.184L1160.45,541.714L1160.67,542.245L1160.88,542.777L1161.09,543.31L1161.3,543.843L1161.51,544.377L1161.71,544.912L1161.92,545.447L1162.12,545.984L1162.32,546.521L1162.52,547.059L1162.72,547.598L1162.92,548.137L1163.11,548.677L1163.31,549.218L1163.5,549.76L1163.69,550.303L1163.88,550.846L1164.06,551.39L1164.25,551.935L1164.43,552.48L1164.61,553.027L1164.79,553.574L1164.97,554.121L1165.15,554.67L1165.32,555.219L1165.5,555.769L1165.67,556.32L1165.84,556.871L1166.01,557.423L1166.17,557.976L1166.34,558.529L1166.5,559.084L1166.66,559.638L1166.83,560.194L1166.98,560.75L1167.14,561.307L1167.3,561.865L1167.45,562.424L1167.6,562.983L1167.75,563.542L1167.9,564.103L1168.05,564.664L1168.19,565.226L1168.33,565.788L1168.48,566.351L1168.62,566.915L1168.75,567.48L1168.89,568.045L1169.02,568.611L1169.16,569.177L1169.29,569.744L1169.42,570.312L1169.55,570.88L1169.67,571.449L1169.8,572.019L1169.92,572.59L1170.04,573.161L1170.16,573.732L1170.28,574.304L1170.39,574.877L1170.5,575.451L1170.62,576.025L1170.73,576.6L1170.83,577.175L1170.94,577.751L1171.05,578.327L1171.15,578.905L1171.25,579.482L1171.35,580.061L1171.45,580.64L1171.54,581.219L1171.64,581.8L1171.73,582.38L1171.82,582.962L1171.91,583.544L1172,584.126L1172.08,584.709L1172.16,585.293L1172.25,585.877L1172.33,586.462L1172.4,587.047L1172.48,587.633L1172.56,588.22L1172.63,588.807L1172.7,589.394L1172.77,589.983L1172.83,590.571L1172.9,591.16L1172.96,591.75L1173.02,592.341L1173.08,592.932L1173.14,593.523L1173.2,594.115L1173.25,594.707L1173.3,595.3L1173.35,595.894L1173.4,596.488L1173.45,597.083L1173.49,597.678L1173.54,598.273L1173.58,598.869L1173.62,599.466L1173.65,600.063L1173.69,600.661L1173.72,601.259L1173.75,601.857L1173.78,602.456L1173.81,603.056L1173.84,603.656L1173.86,604.257L1173.88,604.858L1173.9,605.459L1173.92,606.061L1173.94,606.664L1173.95,607.267L1173.96,607.87L1173.98,608.474L1173.99,609.078L1173.99,609.683L1174,610.288L1174,610.894L1174,611.5L1174,612.106L1174,612.712L1173.99,613.317L1173.99,613.922L1173.98,614.526L1173.96,615.13L1173.95,615.733L1173.94,616.336L1173.92,616.939L1173.9,617.541L1173.88,618.142L1173.86,618.743L1173.84,619.344L1173.81,619.944L1173.78,620.544L1173.75,621.143L1173.72,621.741L1173.69,622.339L1173.65,622.937L1173.62,623.534L1173.58,624.131L1173.54,624.727L1173.49,625.322L1173.45,625.917L1173.4,626.512L1173.35,627.106L1173.3,627.7L1173.25,628.293L1173.2,628.885L1173.14,629.477L1173.08,630.068L1173.02,630.659L1172.96,631.25L1172.9,631.84L1172.83,632.429L1172.77,633.017L1172.7,633.606L1172.63,634.193L1172.56,634.78L1172.48,635.367L1172.4,635.953L1172.33,636.538L1172.25,637.123L1172.16,637.707L1172.08,638.291L1172,638.874L1171.91,639.456L1171.82,640.038L1171.73,640.62L1171.64,641.2L1171.54,641.781L1171.45,642.36L1171.35,642.939L1171.25,643.518L1171.15,644.095L1171.05,644.673L1170.94,645.249L1170.83,645.825L1170.73,646.4L1170.62,646.975L1170.5,647.549L1170.39,648.123L1170.28,648.696L1170.16,649.268L1170.04,649.839L1169.92,650.41L1169.8,650.981L1169.67,651.551L1169.55,652.12L1169.42,652.688L1169.29,653.256L1169.16,653.823L1169.02,654.389L1168.89,654.955L1168.75,655.52L1168.62,656.085L1168.48,656.649L1168.33,657.212L1168.19,657.774L1168.05,658.336L1167.9,658.897L1167.75,659.458L1167.6,660.017L1167.45,660.576L1167.3,661.135L1167.14,661.693L1166.98,662.25L1166.83,662.806L1166.66,663.362L1166.5,663.916L1166.34,664.471L1166.17,665.024L1166.01,665.577L1165.84,666.129L1165.67,666.68L1165.5,667.231L1165.32,667.781L1165.15,668.33L1164.97,668.879L1164.79,669.426L1164.61,669.973L1164.43,670.52L1164.25,671.065L1164.06,671.61L1163.88,672.154L1163.69,672.697L1163.5,673.24L1163.31,673.782L1163.11,674.323L1162.92,674.863L1162.72,675.402L1162.52,675.941L1162.32,676.479L1162.12,677.016L1161.92,677.553L1161.71,678.088L1161.51,678.623L1161.3,679.157L1161.09,679.69L1160.88,680.223L1160.67,680.755L1160.45,681.286L1160.24,681.816L1160.02,682.345L1159.8,682.874L1159.58,683.401L1159.36,683.928L1159.14,684.454L1158.91,684.979L1158.69,685.504L1158.46,686.028L1158.23,686.55L1158,687.072L1157.76,687.594L1157.53,688.114L1157.29,688.633L1157.06,689.152L1156.82,689.67L1156.58,690.187L1156.33,690.703L1156.09,691.218L1155.85,691.733L1155.6,692.246L1155.35,692.759L1155.1,693.271L1154.85,693.782L1154.6,694.292L1154.34,694.801L1154.09,695.309L1153.83,695.817L1153.57,696.323L1153.31,696.829L1153.05,697.334L1152.79,697.838L1152.52,698.341L1152.25,698.843L1151.99,699.344L1151.72,699.845L1151.45,700.344L1151.17,700.843L1150.9,701.341L1150.63,701.837L1150.35,702.333L1150.07,702.828L1149.79,703.322L1149.51,703.815L1149.23,704.307L1148.94,704.799L1148.66,705.289L1148.37,705.778L1148.08,706.267L1147.8,706.754L1147.5,707.241L1147.21,707.726L1146.92,708.211L1146.62,708.695L1146.33,709.178L1146.03,709.659L1145.73,710.14L1145.43,710.62L1145.12,711.099L1144.82,711.577L1144.51,712.054L1144.21,712.53L1143.9,713.005L1143.59,713.479L1143.28,713.952L1142.97,714.424L1142.65,714.895L1142.34,715.365L1142.02,715.834L1141.7,716.303L1141.38,716.77L1141.06,717.236L1140.74,717.701L1140.42,718.165L1140.09,718.628L1139.77,719.09L1139.44,719.551L1139.11,720.011L1138.78,720.47L1138.45,720.928L1138.12,721.385L1137.78,721.841L1137.45,722.296L1137.11,722.75L1136.77,723.203L1136.43,723.654L1136.09,724.105L1135.75,724.555L1135.4,725.003L1135.06,725.451L1134.71,725.898L1134.37,726.343L1134.02,726.787L1133.67,727.231L1133.32,727.673L1132.96,728.114L1132.61,728.554L1132.25,728.993L1131.9,729.431L1131.54,729.868L1131.18,730.304L1130.82,730.739L1130.46,731.172L1130.09,731.605L1129.73,732.036L1129.36,732.466L1129,732.896L1128.63,733.324L1128.26,733.751L1127.89,734.177L1127.52,734.601L1127.14,735.025L1126.77,735.448L1126.39,735.869L1126.02,736.289L1125.64,736.708L1125.26,737.126L1124.88,737.543L1124.5,737.959L1124.11,738.374L1123.73,738.787L1123.34,739.199L1122.95,739.611L1122.57,740.021L1122.18,740.429L1121.79,740.837L1121.39,741.244L1121,741.649L1120.61,742.053L1120.21,742.456L1119.81,742.858L1119.42,743.259L1119.02,743.658L1118.62,744.057L1118.21,744.454L1117.81,744.85L1117.41,745.244L1117,745.638L1116.6,746.03L1116.19,746.421L1115.78,746.811L1115.37,747.2L1114.96,747.588L1114.55,747.974L1114.13,748.359L1113.72,748.743L1113.31,749.126L1112.89,749.507L1112.47,749.888L1112.05,750.267L1111.63,750.644L1111.21,751.021L1110.79,751.396L1110.36,751.77L1109.94,752.143L1109.51,752.515L1109.09,752.885L1108.66,753.254L1108.23,753.622L1107.8,753.989L1107.37,754.354L1106.93,754.718L1106.5,755.081L1106.07,755.442L1105.63,755.803L1105.19,756.162L1104.75,756.519L1104.32,756.876L1103.88,757.231L1103.43,757.585L1102.99,757.937L1102.55,758.289L1102.1,758.639L1101.66,758.987L1101.21,759.335L1100.76,759.681L1100.31,760.026L1099.86,760.369L1099.41,760.711L1098.96,761.052L1098.51,761.392L1098.05,761.73L1097.6,762.067L1097.14,762.402L1096.68,762.737L1096.22,763.07L1095.76,763.401L1095.3,763.731L1094.84,764.06L1094.38,764.388L1093.92,764.714L1093.45,765.039L1092.99,765.362L1092.52,765.685L1092.05,766.005L1091.58,766.325L1091.11,766.643L1090.64,766.96L1090.17,767.275L1089.7,767.589L1089.22,767.902L1088.75,768.213L1088.27,768.523L1087.8,768.831L1087.32,769.138L1086.84,769.444L1086.36,769.748L1085.88,770.051L1085.4,770.352L1084.91,770.653L1084.43,770.951L1083.94,771.249L1083.46,771.544L1082.97,771.839L1082.49,772.132L1082,772.424L1081.51,772.714L1081.02,773.003L1080.53,773.29L1080.03,773.576L1079.54,773.86L1079.05,774.143L1078.55,774.425L1078.05,774.705L1077.56,774.984L1077.06,775.261L1076.56,775.537L1076.06,775.811L1075.56,776.084L1075.06,776.356L1074.56,776.626L1074.05,776.894L1073.55,777.161L1073.04,777.427L1072.54,777.691L1072.03,777.954L1071.52,778.215L1071.01,778.475L1070.5,778.733L1069.99,778.99L1069.48,779.245L1068.97,779.499L1068.45,779.751L1067.94,780.002L1067.42,780.251L1066.91,780.499L1066.39,780.745L1065.87,780.99L1065.36,781.233L1064.84,781.475L1064.32,781.715L1063.8,781.953L1063.27,782.19L1062.75,782.426L1062.23,782.66L1061.7,782.893L1061.18,783.124L1060.65,783.353L1060.12,783.581L1059.6,783.807L1059.07,784.032L1058.54,784.256L1058.01,784.477L1057.48,784.697L1056.94,784.916L1056.41,785.133L1055.88,785.349L1055.34,785.563L1054.81,785.775L1054.27,785.986L1053.74,786.195L1053.2,786.402L1052.66,786.608L1052.12,786.813L1051.58,787.016L1051.04,787.217L1050.5,787.417L1049.96,787.615L1049.41,787.811L1048.87,788.006L1048.33,788.199L1047.78,788.391L1047.23,788.581L1046.69,788.77L1046.14,788.956L1045.59,789.142L1045.04,789.325L1044.49,789.507L1043.94,789.687L1043.39,789.866L1042.84,790.043L1042.29,790.219L1041.73,790.392L1041.18,790.564L1040.62,790.735L1040.07,790.904L1039.51,791.071L1038.95,791.236L1038.39,791.4L1037.84,791.563L1037.28,791.723L1036.72,791.882L1036.16,792.039L1035.59,792.195L1035.03,792.349L1034.47,792.501L1033.91,792.651L1033.34,792.8L1032.78,792.947L1032.21,793.093L1031.64,793.236L1031.08,793.379L1030.51,793.519L1029.94,793.658L1029.37,793.795L1028.8,793.93L1028.23,794.063L1027.66,794.195L1027.09,794.325L1026.52,794.454L1025.94,794.58L1025.37,794.705L1024.8,794.829L1024.22,794.95L1023.65,795.07L1023.07,795.188L1022.49,795.304L1021.92,795.419L1021.34,795.531L1020.76,795.643L1020.18,795.752L1019.6,795.859L1019.02,795.965L1018.44,796.069L1017.86,796.172L1017.27,796.272L1016.69,796.371L1016.11,796.468L1015.52,796.563L1014.94,796.656L1014.35,796.748L1013.77,796.838L1013.18,796.926L1012.59,797.012L1012,797.097L1011.42,797.18L1010.83,797.26L1010.24,797.34L1009.65,797.417L1009.06,797.492L1008.47,797.566L1007.88,797.638L1007.28,797.708L1006.69,797.776L1006.1,797.843L1005.5,797.907L1004.91,797.97L1004.31,798.031L1003.72,798.09L1003.12,798.148L1002.52,798.203L1001.93,798.257L1001.33,798.309L1000.73,798.358L1000.13,798.407L999.533,798.453L998.933,798.497L998.333,798.54L997.732,798.58L997.13,798.619L996.528,798.656L995.926,798.691L995.323,798.724L994.72,798.756L994.116,798.785L993.511,798.813L992.907,798.839L992.301,798.862L991.695,798.884L991.089,798.904L990.482,798.922L989.875,798.939L989.267,798.953L988.659,798.965L988.05,798.976L987.441,798.985L986.832,798.991L986.222,798.996L985.611,798.999L985,799L984.389,798.999L983.778,798.996L983.168,798.991L982.559,798.985L981.95,798.976L981.341,798.965L980.733,798.953L980.125,798.939L979.518,798.922L978.911,798.904L978.305,798.884L977.699,798.862L977.093,798.839L976.489,798.813L975.884,798.785L975.28,798.756L974.677,798.724L974.074,798.691L973.472,798.656L972.87,798.619L972.268,798.58L971.667,798.54L971.067,798.497L970.467,798.453L969.868,798.407L969.269,798.358L968.671,798.309L968.073,798.257L967.476,798.203L966.879,798.148L966.283,798.09L965.687,798.031L965.092,797.97L964.498,797.907L963.904,797.843L963.31,797.776L962.717,797.708L962.125,797.638L961.533,797.566L960.942,797.492L960.352,797.417L959.762,797.34L959.172,797.26L958.583,797.18L957.995,797.097L957.407,797.012L956.82,796.926L956.233,796.838L955.647,796.748L955.062,796.656L954.477,796.563L953.893,796.468L953.309,796.371L952.726,796.272L952.144,796.172L951.562,796.069L950.981,795.965L950.4,795.859L949.82,795.752L949.241,795.643L948.662,795.531L948.084,795.419L947.507,795.304L946.93,795.188L946.354,795.07L945.778,794.95L945.203,794.829L944.629,794.705L944.055,794.58L943.483,794.454L942.91,794.325L942.339,794.195L941.768,794.063L941.197,793.93L940.628,793.795L940.059,793.658L939.49,793.519L938.923,793.379L938.356,793.236L937.789,793.093L937.224,792.947L936.659,792.8L936.094,792.651L935.531,792.501L934.968,792.349L934.406,792.195L933.844,792.039L933.284,791.882L932.724,791.723L932.164,791.563L931.606,791.4L931.048,791.236L930.49,791.071L929.934,790.904L929.378,790.735L928.823,790.564L928.269,790.392L927.715,790.219L927.162,790.043L926.61,789.866L926.059,789.687L925.508,789.507L924.958,789.325L924.409,789.142L923.861,788.956L923.313,788.77L922.766,788.581L922.22,788.391L921.675,788.199L921.13,788.006L920.586,787.811L920.043,787.615L919.501,787.417L918.96,787.217L918.419,787.016L917.879,786.813L917.34,786.608L916.802,786.402L916.264,786.195L915.727,785.986L915.191,785.775L914.656,785.563L914.122,785.349L913.588,785.133L913.055,784.916L912.524,784.697L911.992,784.477L911.462,784.256L910.933,784.032L910.404,783.807L909.876,783.581L909.349,783.353L908.823,783.124L908.298,782.893L907.773,782.66L907.25,782.426L906.727,782.19L906.205,781.953L905.684,781.715L905.164,781.475L904.644,781.233L904.126,780.99L903.608,780.745L903.091,780.499L902.575,780.251L902.06,780.002L901.546,779.751L901.033,779.499L900.52,779.245L900.009,778.99L899.498,778.733L898.988,778.475L898.479,778.215L897.971,777.954L897.464,777.691L896.958,777.427L896.453,777.161L895.948,776.894L895.445,776.626L894.942,776.356L894.441,776.084L893.94,775.811L893.44,775.537L892.941,775.261L892.443,774.984L891.946,774.705L891.45,774.425L890.955,774.143L890.461,773.86L889.967,773.576L889.475,773.29L888.984,773.003L888.493,772.714L888.004,772.424L887.515,772.132L887.028,771.839L886.541,771.544L886.055,771.249L885.571,770.951L885.087,770.653L884.604,770.352L884.122,770.051L883.642,769.748L883.162,769.444L882.683,769.138L882.205,768.831L881.728,768.523L881.252,768.213L880.778,767.902L880.304,767.589L879.831,767.275L879.359,766.96L878.888,766.643L878.418,766.325L877.949,766.005L877.482,765.685L877.015,765.362L876.549,765.039L876.084,764.714L875.621,764.388L875.158,764.06L874.696,763.731L874.236,763.401L873.776,763.07L873.318,762.737L872.86,762.402L872.404,762.067L871.948,761.73L871.494,761.392L871.041,761.052L870.588,760.711L870.137,760.369L869.687,760.026L869.238,759.681L868.79,759.335L868.343,758.987L867.898,758.639L867.453,758.289L867.009,757.937L866.567,757.585L866.125,757.231L865.685,756.876L865.246,756.519L864.807,756.162L864.37,755.803L863.934,755.442L863.5,755.081L863.066,754.718L862.633,754.354L862.202,753.989L861.771,753.622L861.342,753.254L860.914,752.885L860.487,752.515L860.061,752.143L859.636,751.77L859.212,751.396L858.79,751.021L858.369,750.644L857.948,750.267L857.529,749.888L857.111,749.507L856.695,749.126L856.279,748.743L855.865,748.359L855.451,747.974L855.039,747.588L854.628,747.2L854.218,746.811L853.81,746.421L853.402,746.03L852.996,745.638L852.591,745.244L852.187,744.85L851.785,744.454L851.383,744.057L850.983,743.658L850.584,743.259L850.186,742.858L849.789,742.456L849.393,742.053L848.999,741.649L848.606,741.244L848.214,740.837L847.824,740.429L847.434,740.021L847.046,739.611L846.659,739.199L846.273,738.787L845.889,738.374L845.505,737.959L845.123,737.543L844.742,737.126L844.363,736.708L843.985,736.289L843.607,735.869L843.232,735.448L842.857,735.025L842.484,734.601L842.112,734.177L841.741,733.751L841.371,733.324L841.003,732.896L840.636,732.466L840.27,732.036L839.906,731.605L839.543,731.172L839.181,730.739L838.82,730.304L838.461,729.868L838.103,729.431L837.746,728.993L837.391,728.554L837.037,728.114L836.684,727.673L836.333,727.231L835.982,726.787L835.634,726.343L835.286,725.898L834.94,725.451L834.595,725.003L834.251,724.555L833.909,724.105L833.568,723.654L833.229,723.203L832.89,722.75L832.553,722.296L832.218,721.841L831.884,721.385L831.551,720.928L831.219,720.47L830.889,720.011L830.56,719.551L830.233,719.09L829.907,718.628L829.582,718.165L829.259,717.701L828.937,717.236L828.616,716.77L828.297,716.303L827.979,715.834L827.662,715.365L827.347,714.895L827.034,714.424L826.721,713.952L826.41,713.479L826.101,713.005L825.793,712.53L825.486,712.054L825.181,711.577L824.877,711.099L824.574,710.62L824.273,710.14L823.973,709.659L823.675,709.178L823.378,708.695L823.083,708.211L822.789,707.726L822.497,707.241L822.205,706.754L821.916,706.267L821.628,705.778L821.341,705.289L821.055,704.799L820.772,704.307L820.489,703.815L820.208,703.322L819.929,702.828L819.651,702.333L819.374,701.837L819.099,701.341L818.825,700.843L818.553,700.344L818.282,699.845L818.013,699.344L817.746,698.843L817.479,698.341L817.215,697.838L816.951,697.334L816.689,696.829L816.429,696.323L816.17,695.817L815.913,695.309L815.657,694.801L815.403,694.292L815.15,693.782L814.899,693.271L814.649,692.759L814.401,692.246L814.154,691.733L813.909,691.218L813.666,690.703L813.424,690.187L813.183,689.67L812.944,689.152L812.707,688.633L812.471,688.114L812.236,687.594L812.003,687.072L811.772,686.55L811.542,686.028L811.314,685.504L811.087,684.979L810.862,684.454L810.639,683.928L810.417,683.401L810.197,682.874L809.978,682.345L809.761,681.816L809.545,681.286L809.331,680.755L809.118,680.223L808.908,679.69L808.698,679.157L808.491,678.623L808.285,678.088L808.08,677.553L807.877,677.016L807.676,676.479L807.476,675.941L807.278,675.402L807.082,674.863L806.887,674.323L806.694,673.782L806.502,673.24L806.312,672.697L806.124,672.154L805.937,671.61L805.752,671.065L805.569,670.52L805.387,669.973L805.207,669.426L805.029,668.879L804.852,668.33L804.677,667.781L804.503,667.231L804.331,666.68L804.161,666.129L803.992,665.577L803.826,665.024L803.66,664.471L803.497,663.916L803.335,663.362L803.175,662.806L803.016,662.25L802.86,661.693L802.705,661.135L802.551,660.576L802.399,660.017L802.249,659.458L802.101,658.897L801.955,658.336L801.81,657.774L801.666,657.212L801.525,656.649L801.385,656.085L801.247,655.52L801.111,654.955L800.976,654.389L800.843,653.823L800.712,653.256L800.583,652.688L800.455,652.12L800.329,651.551L800.205,650.981L800.082,650.41L799.962,649.839L799.843,649.268L799.725,648.696L799.61,648.123L799.496,647.549L799.384,646.975L799.274,646.4L799.166,645.825L799.059,645.249L798.954,644.673L798.851,644.095L798.75,643.518L798.65,642.939L798.552,642.36L798.457,641.781L798.362,641.2L798.27,640.62L798.179,640.038L798.091,639.456L798.004,638.874L797.918,638.291L797.835,637.707L797.753,637.123L797.674,636.538L797.596,635.953L797.52,635.367L797.445,634.78L797.373,634.193L797.302,633.606L797.233,633.017L797.166,632.429L797.101,631.84L797.038,631.25L796.977,630.659L796.917,630.068L796.859,629.477L796.803,628.885L796.749,628.293L796.697,627.7L796.647,627.106L796.598,626.512L796.552,625.917L796.507,625.322L796.464,624.727L796.423,624.131L796.384,623.534L796.347,622.937L796.311,622.339L796.278,621.741L796.246,621.143L796.216,620.544L796.189,619.944L796.163,619.344L796.139,618.743L796.117,618.142L796.096,617.541L796.078,616.939L796.062,616.336L796.047,615.733L796.035,615.13L796.024,614.526L796.015,613.922L796.009,613.317L796.004,612.712L796.001,612.106L796,611.5L796.001,610.894L796.004,610.288L796.009,609.683L796.015,609.078L796.024,608.474L796.035,607.87L796.047,607.267L796.062,606.664L796.078,606.061L796.096,605.459L796.117,604.858L796.139,604.257L796.163,603.656L796.189,603.056L796.216,602.456L796.246,601.857L796.278,601.259L796.311,600.661L796.347,600.063L796.384,599.466L796.423,598.869L796.464,598.273L796.507,597.678L796.552,597.083L796.598,596.488L796.647,595.894L796.697,595.3L796.749,594.707L796.803,594.115L796.859,593.523L796.917,592.932L796.977,592.341L797.038,591.75L797.101,591.16L797.166,590.571L797.233,589.983L797.302,589.394L797.373,588.807L797.445,588.22L797.52,587.633L797.596,587.047L797.674,586.462L797.753,585.877L797.835,585.293L797.918,584.709L798.004,584.126L798.091,583.544L798.179,582.962L798.27,582.38L798.362,581.8L798.457,581.219L798.552,580.64L798.65,580.061L798.75,579.482L798.851,578.905L798.954,578.327L799.059,577.751L799.166,577.175L799.274,576.6L799.384,576.025L799.496,575.451L799.61,574.877L799.725,574.304L799.843,573.732L799.962,573.161L800.082,572.59L800.205,572.019L800.329,571.449L800.455,570.88L800.583,570.312L800.712,569.744L800.843,569.177L800.976,568.611L801.111,568.045L801.247,567.48L801.385,566.915L801.525,566.351L801.666,565.788L801.81,565.226L801.955,564.664L802.101,564.103L802.249,563.542L802.399,562.983L802.551,562.424L802.705,561.865L802.86,561.307L803.016,560.75L803.175,560.194L803.335,559.638L803.497,559.084L803.66,558.529L803.826,557.976L803.992,557.423L804.161,556.871L804.331,556.32L804.503,555.769L804.677,555.219L804.852,554.67L805.029,554.121L805.207,553.574L805.387,553.027L805.569,552.48L805.752,551.935L805.937,551.39L806.124,550.846L806.312,550.303L806.502,549.76L806.694,549.218L806.887,548.677L807.082,548.137L807.278,547.598L807.476,547.059L807.676,546.521L807.877,545.984L808.08,545.447L808.285,544.912L808.491,544.377L808.698,543.843L808.908,543.31L809.118,542.777L809.331,542.245L809.545,541.714L809.761,541.184L809.978,540.655L810.197,540.126L810.417,539.599L810.639,539.072L810.862,538.546L811.087,538.021L811.314,537.496L811.542,536.972L811.772,536.45L812.003,535.928L812.236,535.406L812.471,534.886L812.707,534.367L812.944,533.848L813.183,533.33L813.424,532.813L813.666,532.297L813.909,531.782L814.154,531.267L814.401,530.754L814.649,530.241L814.899,529.729L815.15,529.218L815.403,528.708L815.657,528.199L815.913,527.691L816.17,527.183L816.429,526.677L816.689,526.171L816.951,525.666L817.215,525.162L817.479,524.659L817.746,524.157L818.013,523.656L818.282,523.155L818.553,522.656L818.825,522.157L819.099,521.659L819.374,521.163L819.651,520.667L819.929,520.172L820.208,519.678L820.489,519.185L820.772,518.693L821.055,518.201L821.341,517.711L821.628,517.222L821.916,516.733L822.205,516.246L822.497,515.759L822.789,515.274L823.083,514.789L823.378,514.305L823.675,513.822L823.973,513.341L824.273,512.86L824.574,512.38L824.877,511.901L825.181,511.423L825.486,510.946L825.793,510.47L826.101,509.995L826.41,509.521L826.721,509.048L827.034,508.576L827.347,508.105L827.662,507.635L827.979,507.166L828.297,506.697L828.616,506.23L828.937,505.764L829.259,505.299L829.582,504.835L829.907,504.372L830.233,503.91L830.56,503.449L830.889,502.989L831.219,502.53L831.551,502.072L831.884,501.615L832.218,501.159L832.553,500.704L832.89,500.25L833.229,499.797L833.568,499.346L833.909,498.895L834.251,498.445L834.595,497.997L834.94,497.549L835.286,497.102L835.634,496.657L835.982,496.213L836.333,495.769L836.684,495.327L837.037,494.886L837.391,494.446L837.746,494.007L838.103,493.569L838.461,493.132L838.82,492.696L839.181,492.261L839.543,491.828L839.906,491.395L840.27,490.964L840.636,490.534L841.003,490.104L841.371,489.676L841.741,489.249L842.112,488.823L842.484,488.399L842.857,487.975L843.232,487.552L843.607,487.131L843.985,486.711L844.363,486.292L844.742,485.874L845.123,485.457L845.505,485.041L845.889,484.626L846.273,484.213L846.659,483.801L847.046,483.389L847.434,482.979L847.824,482.571L848.214,482.163L848.606,481.756L848.999,481.351L849.393,480.947L849.789,480.544L850.186,480.142L850.584,479.741L850.983,479.342L851.383,478.943L851.785,478.546L852.187,478.15L852.591,477.756L852.996,477.362L853.402,476.97L853.81,476.579L854.218,476.189L854.628,475.8L855.039,475.412L855.451,475.026L855.865,474.641L856.279,474.257L856.695,473.874L857.111,473.493L857.529,473.112L857.948,472.733L858.369,472.356L858.79,471.979L859.212,471.604L859.636,471.23L860.061,470.857L860.487,470.485L860.914,470.115L861.342,469.746L861.771,469.378L862.202,469.011L862.633,468.646L863.066,468.282L863.5,467.919L863.934,467.558L864.37,467.197L864.807,466.838L865.246,466.481L865.685,466.124L866.125,465.769L866.567,465.415L867.009,465.063L867.453,464.711L867.898,464.361L868.343,464.013L868.79,463.665L869.238,463.319L869.687,462.974L870.137,462.631L870.588,462.289L871.041,461.948L871.494,461.608L871.948,461.27L872.404,460.933L872.86,460.598L873.318,460.263L873.776,459.93L874.236,459.599L874.696,459.269L875.158,458.94L875.621,458.612L876.084,458.286L876.549,457.961L877.015,457.638L877.482,457.315L877.949,456.995L878.418,456.675L878.888,456.357L879.359,456.04L879.831,455.725L880.304,455.411L880.778,455.098L881.252,454.787L881.728,454.477L882.205,454.169L882.683,453.862L883.162,453.556L883.642,453.252L884.122,452.949L884.604,452.648L885.087,452.347L885.571,452.049L886.055,451.751L886.541,451.456L887.028,451.161L887.515,450.868L888.004,450.576L888.493,450.286L888.984,449.997L889.475,449.71L889.967,449.424L890.461,449.14L890.955,448.857L891.45,448.575L891.946,448.295L892.443,448.016L892.941,447.739L893.44,447.463L893.94,447.189L894.441,446.916L894.942,446.644L895.445,446.374L895.948,446.106L896.453,445.839L896.958,445.573L897.464,445.309L897.971,445.046L898.479,444.785L898.988,444.525L899.498,444.267L900.009,444.01L900.52,443.755L901.033,443.501L901.546,443.249L902.06,442.998L902.575,442.749L903.091,442.501L903.608,442.255L904.126,442.01L904.644,441.767L905.164,441.525L905.684,441.285L906.205,441.047L906.727,440.81L907.25,440.574L907.773,440.34L908.298,440.107L908.823,439.876L909.349,439.647L909.876,439.419L910.404,439.193L910.933,438.968L911.462,438.744L911.992,438.523L912.524,438.303L913.055,438.084L913.588,437.867L914.122,437.651L914.656,437.437L915.191,437.225L915.727,437.014L916.264,436.805L916.802,436.598L917.34,436.392L917.879,436.187L918.419,435.984L918.96,435.783L919.501,435.583L920.043,435.385L920.586,435.189L921.13,434.994L921.675,434.801L922.22,434.609L922.766,434.419L923.313,434.23L923.861,434.044L924.409,433.858L924.958,433.675L925.508,433.493L926.059,433.313L926.61,433.134L927.162,432.957L927.715,432.781L928.269,432.608L928.823,432.436L929.378,432.265L929.934,432.096L930.49,431.929L931.048,431.764L931.606,431.6L932.164,431.437L932.724,431.277L933.284,431.118L933.844,430.961L934.406,430.805L934.968,430.651L935.531,430.499L936.094,430.349L936.659,430.2L937.224,430.053L937.789,429.907L938.356,429.764L938.923,429.621L939.49,429.481L940.059,429.342L940.628,429.205L941.197,429.07L941.768,428.937L942.339,428.805L942.91,428.675L943.483,428.546L944.055,428.42L944.629,428.295L945.203,428.171L945.778,428.05L946.354,427.93L946.93,427.812L947.507,427.696L948.084,427.581L948.662,427.469L949.241,427.357L949.82,427.248L950.4,427.141L950.981,427.035L951.562,426.931L952.144,426.828L952.726,426.728L953.309,426.629L953.893,426.532L954.477,426.437L955.062,426.344L955.647,426.252L956.233,426.162L956.82,426.074L957.407,425.988L957.995,425.903L958.583,425.82L959.172,425.74L959.762,425.66L960.352,425.583L960.942,425.508L961.533,425.434L962.125,425.362L962.717,425.292L963.31,425.224L963.904,425.157L964.498,425.093L965.092,425.03L965.687,424.969L966.283,424.91L966.879,424.852L967.476,424.797L968.073,424.743L968.671,424.691L969.269,424.642L969.868,424.593L970.467,424.547L971.067,424.503L971.667,424.46L972.268,424.42L972.87,424.381L973.472,424.344L974.074,424.309L974.677,424.276L975.28,424.244L975.884,424.215L976.489,424.187L977.093,424.161L977.699,424.138L978.305,424.116L978.911,424.096L979.518,424.078L980.125,424.061L980.733,424.047L981.341,424.035L981.95,424.024L982.559,424.015L983.168,424.009L983.778,424.004L984.389,424.001L985,424L985.611,424.001ZM984.449,442.751L983.898,442.753L983.348,442.758L982.799,442.764L982.249,442.772L981.701,442.781L981.152,442.792L980.604,442.805L980.057,442.82L979.51,442.836L978.964,442.854L978.418,442.874L977.872,442.896L977.327,442.919L976.782,442.944L976.238,442.97L975.695,442.998L975.152,443.028L974.609,443.06L974.067,443.093L973.525,443.128L972.984,443.165L972.443,443.203L971.903,443.243L971.363,443.285L970.824,443.328L970.285,443.373L969.747,443.42L969.209,443.468L968.672,443.518L968.136,443.569L967.599,443.623L967.064,443.678L966.529,443.734L965.994,443.792L965.46,443.852L964.926,443.913L964.393,443.977L963.86,444.041L963.328,444.108L962.797,444.176L962.266,444.245L961.736,444.316L961.206,444.389L960.676,444.464L960.147,444.54L959.619,444.617L959.091,444.696L958.564,444.777L958.037,444.86L957.511,444.944L956.986,445.029L956.461,445.117L955.936,445.206L955.412,445.296L954.889,445.388L954.366,445.482L953.844,445.577L953.323,445.673L952.801,445.772L952.281,445.872L951.761,445.973L951.242,446.076L950.723,446.181L950.205,446.287L949.687,446.395L949.17,446.504L948.654,446.615L948.138,446.727L947.623,446.841L947.108,446.956L946.594,447.073L946.08,447.192L945.568,447.312L945.055,447.434L944.544,447.557L944.033,447.682L943.522,447.808L943.012,447.936L942.503,448.065L941.994,448.196L941.486,448.328L940.979,448.462L940.472,448.597L939.966,448.734L939.461,448.872L938.956,449.012L938.452,449.153L937.948,449.296L937.445,449.441L936.943,449.587L936.441,449.734L935.94,449.883L935.44,450.033L934.94,450.185L934.441,450.338L933.943,450.493L933.445,450.649L932.948,450.807L932.451,450.966L931.956,451.127L931.46,451.289L930.966,451.452L930.472,451.618L929.979,451.784L929.487,451.952L928.995,452.122L928.504,452.292L928.013,452.465L927.524,452.639L927.035,452.814L926.546,452.99L926.059,453.169L925.572,453.348L925.086,453.529L924.6,453.712L924.115,453.895L923.631,454.081L923.148,454.267L922.665,454.455L922.183,454.645L921.702,454.836L921.221,455.028L920.741,455.222L920.262,455.417L919.784,455.614L919.306,455.812L918.829,456.011L918.353,456.212L917.877,456.414L917.403,456.618L916.929,456.823L916.455,457.029L915.983,457.237L915.511,457.446L915.04,457.657L914.57,457.869L914.1,458.082L913.632,458.297L913.164,458.513L912.697,458.73L912.23,458.949L911.764,459.169L911.299,459.391L910.835,459.614L910.372,459.838L909.909,460.063L909.448,460.29L908.987,460.519L908.526,460.748L908.067,460.979L907.608,461.212L907.15,461.445L906.693,461.68L906.237,461.917L905.782,462.154L905.327,462.393L904.873,462.634L904.42,462.875L903.968,463.118L903.517,463.362L903.066,463.608L902.616,463.855L902.167,464.103L901.719,464.353L901.272,464.604L900.825,464.856L900.38,465.109L899.935,465.364L899.491,465.62L899.048,465.877L898.606,466.136L898.164,466.396L897.724,466.657L897.284,466.919L896.845,467.183L896.407,467.448L895.97,467.714L895.534,467.982L895.098,468.251L894.664,468.521L894.23,468.792L893.797,469.065L893.365,469.339L892.934,469.614L892.504,469.891L892.075,470.168L891.646,470.447L891.219,470.727L890.792,471.009L890.367,471.291L889.942,471.575L889.518,471.86L889.095,472.147L888.673,472.434L888.252,472.723L887.832,473.013L887.412,473.305L886.994,473.597L886.576,473.891L886.16,474.186L885.744,474.482L885.329,474.779L884.915,475.078L884.502,475.378L884.091,475.678L883.68,475.981L883.269,476.284L882.86,476.589L882.452,476.894L882.045,477.201L881.639,477.509L881.233,477.819L880.829,478.129L880.426,478.441L880.023,478.754L879.622,479.068L879.221,479.383L878.822,479.699L878.423,480.017L878.026,480.335L877.629,480.655L877.233,480.976L876.839,481.299L876.445,481.622L876.052,481.946L875.661,482.272L875.27,482.599L874.88,482.927L874.492,483.256L874.104,483.586L873.718,483.917L873.332,484.25L872.947,484.583L872.564,484.918L872.181,485.254L871.8,485.591L871.419,485.929L871.039,486.268L870.661,486.608L870.284,486.949L869.907,487.292L869.532,487.636L869.157,487.98L868.784,488.326L868.412,488.673L868.041,489.021L867.67,489.37L867.301,489.72L866.933,490.072L866.566,490.424L866.2,490.777L865.836,491.132L865.472,491.487L865.109,491.844L864.747,492.202L864.387,492.561L864.027,492.92L863.669,493.281L863.312,493.643L862.955,494.006L862.6,494.37L862.246,494.735L861.893,495.102L861.541,495.469L861.19,495.837L860.841,496.206L860.492,496.577L860.145,496.948L859.798,497.321L859.453,497.694L859.109,498.068L858.766,498.444L858.424,498.82L858.083,499.198L857.744,499.576L857.405,499.956L857.068,500.337L856.732,500.718L856.396,501.101L856.062,501.484L855.73,501.869L855.398,502.254L855.067,502.641L854.738,503.029L854.41,503.417L854.083,503.807L853.757,504.197L853.432,504.589L853.109,504.981L852.786,505.375L852.465,505.769L852.145,506.164L851.826,506.561L851.508,506.958L851.192,507.356L850.876,507.756L850.562,508.156L850.249,508.557L849.938,508.959L849.627,509.362L849.317,509.766L849.009,510.171L848.702,510.577L848.396,510.984L848.092,511.391L847.789,511.8L847.486,512.21L847.185,512.62L846.886,513.032L846.587,513.444L846.29,513.857L845.994,514.271L845.699,514.687L845.405,515.103L845.113,515.52L844.822,515.937L844.532,516.356L844.243,516.776L843.956,517.196L843.67,517.618L843.385,518.04L843.101,518.463L842.819,518.887L842.538,519.312L842.258,519.738L841.979,520.165L841.702,520.593L841.426,521.021L841.151,521.45L840.877,521.881L840.605,522.312L840.334,522.744L840.064,523.177L839.796,523.61L839.529,524.045L839.263,524.48L838.998,524.916L838.735,525.353L838.473,525.791L838.212,526.23L837.953,526.67L837.695,527.11L837.438,527.551L837.183,527.993L836.928,528.436L836.676,528.88L836.424,529.325L836.174,529.77L835.925,530.216L835.677,530.663L835.431,531.111L835.186,531.56L834.943,532.009L834.7,532.459L834.459,532.91L834.22,533.362L833.982,533.815L833.745,534.268L833.509,534.722L833.275,535.178L833.042,535.633L832.811,536.09L832.581,536.547L832.352,537.005L832.125,537.464L831.899,537.924L831.674,538.384L831.451,538.846L831.229,539.308L831.008,539.77L830.789,540.234L830.571,540.698L830.355,541.163L830.14,541.629L829.926,542.095L829.714,542.563L829.503,543.031L829.294,543.499L829.086,543.969L828.879,544.439L828.674,544.91L828.47,545.382L828.267,545.854L828.066,546.327L827.867,546.801L827.669,547.276L827.472,547.751L827.277,548.227L827.083,548.704L826.89,549.182L826.699,549.66L826.509,550.139L826.321,550.618L826.135,551.098L825.949,551.579L825.765,552.061L825.583,552.543L825.402,553.027L825.222,553.51L825.044,553.995L824.868,554.48L824.692,554.966L824.519,555.452L824.346,555.939L824.176,556.427L824.006,556.916L823.838,557.405L823.672,557.895L823.507,558.385L823.344,558.877L823.182,559.368L823.021,559.861L822.862,560.354L822.705,560.848L822.549,561.342L822.394,561.837L822.241,562.333L822.09,562.83L821.94,563.327L821.791,563.824L821.644,564.323L821.499,564.822L821.355,565.321L821.212,565.821L821.071,566.322L820.932,566.824L820.794,567.326L820.657,567.828L820.523,568.332L820.389,568.836L820.257,569.34L820.127,569.846L819.998,570.351L819.871,570.858L819.745,571.365L819.621,571.872L819.499,572.381L819.378,572.889L819.258,573.399L819.14,573.909L819.024,574.419L818.909,574.93L818.796,575.442L818.684,575.954L818.574,576.467L818.465,576.981L818.358,577.495L818.253,578.01L818.149,578.525L818.047,579.041L817.946,579.557L817.847,580.074L817.749,580.591L817.653,581.11L817.559,581.628L817.466,582.147L817.375,582.667L817.286,583.187L817.198,583.708L817.111,584.23L817.027,584.751L816.944,585.274L816.862,585.797L816.782,586.321L816.704,586.845L816.627,587.369L816.552,587.894L816.479,588.42L816.407,588.946L816.337,589.473L816.268,590L816.202,590.528L816.136,591.057L816.073,591.585L816.011,592.115L815.951,592.645L815.892,593.175L815.835,593.706L815.78,594.237L815.726,594.769L815.674,595.302L815.624,595.835L815.575,596.368L815.528,596.902L815.483,597.437L815.439,597.972L815.397,598.507L815.357,599.043L815.318,599.579L815.281,600.116L815.246,600.654L815.212,601.191L815.18,601.73L815.15,602.269L815.122,602.808L815.095,603.348L815.07,603.888L815.047,604.429L815.025,604.97L815.005,605.511L814.987,606.054L814.97,606.596L814.956,607.139L814.943,607.683L814.931,608.227L814.922,608.771L814.914,609.316L814.908,609.861L814.904,610.407L814.901,610.953L814.9,611.5L814.901,612.047L814.904,612.593L814.908,613.139L814.914,613.684L814.922,614.229L814.931,614.773L814.943,615.317L814.956,615.861L814.97,616.404L814.987,616.946L815.005,617.489L815.025,618.03L815.047,618.571L815.07,619.112L815.095,619.652L815.122,620.192L815.15,620.731L815.18,621.27L815.212,621.809L815.246,622.346L815.281,622.884L815.318,623.421L815.357,623.957L815.397,624.493L815.439,625.028L815.483,625.563L815.528,626.098L815.575,626.632L815.624,627.165L815.674,627.698L815.726,628.231L815.78,628.763L815.835,629.294L815.892,629.825L815.951,630.355L816.011,630.885L816.073,631.415L816.136,631.943L816.202,632.472L816.268,633L816.337,633.527L816.407,634.054L816.479,634.58L816.552,635.106L816.627,635.631L816.704,636.155L816.782,636.679L816.862,637.203L816.944,637.726L817.027,638.249L817.111,638.77L817.198,639.292L817.286,639.813L817.375,640.333L817.466,640.853L817.559,641.372L817.653,641.89L817.749,642.409L817.847,642.926L817.946,643.443L818.047,643.959L818.149,644.475L818.253,644.99L818.358,645.505L818.465,646.019L818.574,646.533L818.684,647.046L818.796,647.558L818.909,648.07L819.024,648.581L819.14,649.091L819.258,649.601L819.378,650.111L819.499,650.619L819.621,651.128L819.745,651.635L819.871,652.142L819.998,652.649L820.127,653.154L820.257,653.66L820.389,654.164L820.523,654.668L820.657,655.172L820.794,655.674L820.932,656.176L821.071,656.678L821.212,657.179L821.355,657.679L821.499,658.178L821.644,658.677L821.791,659.176L821.94,659.673L822.09,660.17L822.241,660.667L822.394,661.163L822.549,661.658L822.705,662.152L822.862,662.646L823.021,663.139L823.182,663.632L823.344,664.123L823.507,664.615L823.672,665.105L823.839,665.595L824.006,666.084L824.176,666.573L824.347,667.061L824.519,667.548L824.692,668.034L824.868,668.52L825.044,669.005L825.222,669.49L825.402,669.973L825.583,670.456L825.765,670.939L825.949,671.421L826.135,671.902L826.321,672.382L826.509,672.861L826.699,673.34L826.89,673.819L827.083,674.296L827.277,674.773L827.472,675.249L827.669,675.724L827.867,676.199L828.067,676.673L828.267,677.146L828.47,677.618L828.674,678.09L828.879,678.561L829.086,679.031L829.294,679.5L829.503,679.969L829.714,680.437L829.926,680.904L830.14,681.371L830.355,681.837L830.571,682.302L830.789,682.766L831.008,683.23L831.229,683.692L831.451,684.154L831.674,684.616L831.899,685.076L832.125,685.536L832.352,685.995L832.581,686.453L832.811,686.91L833.042,687.367L833.275,687.822L833.509,688.277L833.745,688.732L833.982,689.185L834.22,689.638L834.459,690.09L834.7,690.541L834.943,690.991L835.186,691.44L835.431,691.889L835.677,692.337L835.925,692.784L836.174,693.23L836.424,693.675L836.676,694.12L836.928,694.564L837.182,695.007L837.438,695.449L837.695,695.89L837.953,696.33L838.212,696.77L838.473,697.209L838.735,697.647L838.998,698.084L839.263,698.52L839.529,698.955L839.796,699.39L840.064,699.823L840.334,700.256L840.605,700.688L840.877,701.119L841.151,701.549L841.426,701.979L841.702,702.407L841.979,702.835L842.258,703.262L842.538,703.688L842.819,704.113L843.101,704.537L843.385,704.96L843.67,705.382L843.956,705.804L844.243,706.224L844.532,706.644L844.822,707.063L845.113,707.481L845.405,707.897L845.699,708.313L845.994,708.729L846.29,709.143L846.587,709.556L846.886,709.968L847.185,710.38L847.486,710.79L847.789,711.2L848.092,711.609L848.396,712.016L848.702,712.423L849.009,712.829L849.317,713.234L849.627,713.638L849.938,714.041L850.249,714.443L850.562,714.844L850.876,715.244L851.192,715.644L851.508,716.042L851.826,716.439L852.145,716.836L852.465,717.231L852.786,717.626L853.109,718.019L853.432,718.411L853.757,718.803L854.083,719.193L854.41,719.583L854.738,719.971L855.068,720.359L855.398,720.746L855.73,721.131L856.063,721.516L856.396,721.899L856.732,722.282L857.068,722.663L857.405,723.044L857.744,723.423L858.083,723.802L858.424,724.18L858.766,724.556L859.109,724.932L859.453,725.306L859.798,725.68L860.145,726.052L860.492,726.423L860.841,726.793L861.19,727.163L861.541,727.531L861.893,727.898L862.246,728.265L862.6,728.63L862.955,728.994L863.312,729.357L863.669,729.719L864.027,730.08L864.387,730.44L864.747,730.798L865.109,731.156L865.472,731.513L865.836,731.868L866.201,732.223L866.566,732.576L866.933,732.928L867.301,733.28L867.67,733.63L868.041,733.979L868.412,734.327L868.784,734.674L869.158,735.02L869.532,735.364L869.907,735.708L870.284,736.051L870.661,736.392L871.04,736.732L871.419,737.071L871.799,737.409L872.181,737.746L872.564,738.082L872.947,738.417L873.332,738.75L873.718,739.083L874.104,739.414L874.492,739.744L874.88,740.073L875.27,740.401L875.661,740.728L876.053,741.054L876.445,741.378L876.839,741.701L877.233,742.023L877.629,742.345L878.026,742.664L878.423,742.983L878.822,743.301L879.221,743.617L879.622,743.932L880.023,744.246L880.426,744.559L880.829,744.871L881.233,745.181L881.639,745.491L882.045,745.799L882.452,746.106L882.86,746.411L883.269,746.716L883.68,747.019L884.091,747.322L884.503,747.623L884.915,747.922L885.329,748.221L885.744,748.518L886.16,748.814L886.576,749.109L886.993,749.403L887.412,749.695L887.832,749.987L888.252,750.277L888.673,750.566L889.095,750.853L889.518,751.139L889.942,751.425L890.367,751.709L890.792,751.991L891.219,752.273L891.646,752.553L892.075,752.832L892.504,753.109L892.934,753.386L893.365,753.661L893.798,753.935L894.23,754.208L894.664,754.479L895.098,754.749L895.534,755.018L895.97,755.286L896.407,755.552L896.845,755.817L897.284,756.08L897.724,756.343L898.164,756.604L898.605,756.864L899.048,757.123L899.491,757.38L899.935,757.636L900.38,757.891L900.826,758.145L901.272,758.396L901.719,758.647L902.167,758.897L902.616,759.145L903.066,759.392L903.516,759.638L903.968,759.882L904.42,760.125L904.873,760.367L905.327,760.607L905.782,760.846L906.237,761.083L906.693,761.32L907.15,761.555L907.608,761.789L908.067,762.021L908.526,762.252L908.987,762.481L909.448,762.71L909.909,762.937L910.372,763.162L910.836,763.387L911.3,763.609L911.764,763.831L912.23,764.051L912.697,764.27L913.164,764.487L913.632,764.703L914.1,764.918L914.57,765.131L915.04,765.343L915.511,765.554L915.983,765.763L916.455,765.97L916.929,766.177L917.403,766.382L917.878,766.586L918.353,766.788L918.829,766.989L919.306,767.188L919.784,767.386L920.262,767.583L920.741,767.778L921.221,767.972L921.702,768.164L922.183,768.355L922.665,768.545L923.148,768.733L923.631,768.919L924.115,769.105L924.6,769.289L925.086,769.471L925.571,769.652L926.059,769.832L926.547,770.01L927.034,770.186L927.524,770.361L928.013,770.535L928.504,770.708L928.995,770.879L929.487,771.048L929.979,771.216L930.472,771.382L930.966,771.547L931.46,771.711L931.956,771.873L932.451,772.034L932.947,772.193L933.445,772.351L933.942,772.507L934.441,772.662L934.94,772.815L935.44,772.967L935.94,773.117L936.441,773.266L936.943,773.413L937.445,773.559L937.948,773.704L938.452,773.846L938.956,773.988L939.461,774.128L939.966,774.266L940.472,774.403L940.979,774.538L941.487,774.672L941.995,774.804L942.503,774.935L943.012,775.064L943.522,775.192L944.032,775.318L944.544,775.443L945.055,775.566L945.567,775.688L946.081,775.808L946.594,775.927L947.108,776.043L947.622,776.159L948.138,776.273L948.654,776.385L949.17,776.496L949.687,776.605L950.205,776.713L950.723,776.819L951.241,776.924L951.761,777.027L952.281,777.128L952.801,777.228L953.323,777.327L953.844,777.423L954.366,777.518L954.889,777.612L955.413,777.704L955.936,777.794L956.461,777.883L956.986,777.971L957.511,778.056L958.037,778.14L958.564,778.223L959.091,778.304L959.619,778.383L960.147,778.46L960.676,778.536L961.205,778.611L961.736,778.684L962.266,778.755L962.797,778.824L963.329,778.892L963.86,778.959L964.393,779.023L964.926,779.086L965.46,779.148L965.994,779.208L966.529,779.266L967.064,779.322L967.599,779.377L968.135,779.431L968.672,779.482L969.21,779.532L969.747,779.58L970.285,779.627L970.824,779.672L971.363,779.715L971.903,779.757L972.444,779.797L972.984,779.835L973.525,779.872L974.067,779.907L974.609,779.94L975.152,779.972L975.695,780.002L976.238,780.03L976.782,780.056L977.327,780.081L977.872,780.104L978.418,780.126L978.963,780.146L979.51,780.164L980.057,780.18L980.604,780.195L981.152,780.208L981.701,780.219L982.249,780.228L982.799,780.236L983.349,780.242L983.898,780.247L984.449,780.249L985,780.25L985.551,780.249L986.102,780.247L986.651,780.242L987.201,780.236L987.751,780.228L988.299,780.219L988.848,780.208L989.396,780.195L989.943,780.18L990.49,780.164L991.037,780.146L991.582,780.126L992.128,780.104L992.673,780.081L993.218,780.056L993.762,780.03L994.305,780.002L994.848,779.972L995.391,779.94L995.933,779.907L996.475,779.872L997.016,779.835L997.556,779.797L998.097,779.757L998.637,779.715L999.176,779.672L999.715,779.627L1000.25,779.58L1000.79,779.532L1001.33,779.482L1001.87,779.431L1002.4,779.377L1002.94,779.322L1003.47,779.266L1004.01,779.208L1004.54,779.148L1005.07,779.086L1005.61,779.023L1006.14,778.959L1006.67,778.892L1007.2,778.824L1007.73,778.755L1008.26,778.684L1008.8,778.611L1009.32,778.536L1009.85,778.46L1010.38,778.383L1010.91,778.304L1011.44,778.223L1011.96,778.14L1012.49,778.056L1013.01,777.971L1013.54,777.883L1014.06,777.794L1014.59,777.704L1015.11,777.612L1015.63,777.518L1016.16,777.423L1016.68,777.327L1017.2,777.228L1017.72,777.128L1018.24,777.027L1018.76,776.924L1019.28,776.819L1019.8,776.713L1020.31,776.605L1020.83,776.496L1021.35,776.385L1021.86,776.273L1022.38,776.159L1022.89,776.043L1023.41,775.927L1023.92,775.808L1024.43,775.688L1024.94,775.566L1025.46,775.443L1025.97,775.318L1026.48,775.192L1026.99,775.064L1027.5,774.935L1028.01,774.804L1028.51,774.672L1029.02,774.538L1029.53,774.403L1030.03,774.266L1030.54,774.128L1031.04,773.988L1031.55,773.846L1032.05,773.704L1032.56,773.559L1033.06,773.413L1033.56,773.266L1034.06,773.117L1034.56,772.967L1035.06,772.815L1035.56,772.662L1036.06,772.507L1036.56,772.351L1037.05,772.193L1037.55,772.034L1038.04,771.873L1038.54,771.711L1039.03,771.547L1039.53,771.382L1040.02,771.216L1040.51,771.048L1041.01,770.878L1041.5,770.708L1041.99,770.535L1042.48,770.361L1042.97,770.186L1043.45,770.01L1043.94,769.832L1044.43,769.652L1044.91,769.471L1045.4,769.289L1045.88,769.105L1046.37,768.919L1046.85,768.733L1047.34,768.545L1047.82,768.355L1048.3,768.164L1048.78,767.972L1049.26,767.778L1049.74,767.583L1050.22,767.386L1050.69,767.188L1051.17,766.989L1051.65,766.788L1052.12,766.586L1052.6,766.382L1053.07,766.177L1053.55,765.97L1054.02,765.763L1054.49,765.554L1054.96,765.343L1055.43,765.131L1055.9,764.918L1056.37,764.703L1056.84,764.487L1057.3,764.27L1057.77,764.051L1058.24,763.831L1058.7,763.609L1059.16,763.387L1059.63,763.162L1060.09,762.937L1060.55,762.71L1061.01,762.481L1061.47,762.252L1061.93,762.021L1062.39,761.789L1062.85,761.555L1063.31,761.32L1063.76,761.083L1064.22,760.846L1064.67,760.607L1065.13,760.367L1065.58,760.125L1066.03,759.882L1066.48,759.638L1066.93,759.392L1067.38,759.145L1067.83,758.897L1068.28,758.647L1068.73,758.396L1069.17,758.145L1069.62,757.891L1070.07,757.636L1070.51,757.38L1070.95,757.123L1071.39,756.864L1071.84,756.604L1072.28,756.343L1072.72,756.08L1073.15,755.817L1073.59,755.552L1074.03,755.286L1074.47,755.018L1074.9,754.749L1075.34,754.479L1075.77,754.208L1076.2,753.935L1076.63,753.661L1077.07,753.386L1077.5,753.109L1077.92,752.831L1078.35,752.553L1078.78,752.273L1079.21,751.991L1079.63,751.709L1080.06,751.425L1080.48,751.139L1080.9,750.853L1081.33,750.566L1081.75,750.277L1082.17,749.987L1082.59,749.695L1083.01,749.403L1083.42,749.109L1083.84,748.814L1084.26,748.518L1084.67,748.221L1085.09,747.922L1085.5,747.623L1085.91,747.321L1086.32,747.02L1086.73,746.716L1087.14,746.411L1087.55,746.106L1087.95,745.799L1088.36,745.49L1088.77,745.181L1089.17,744.871L1089.57,744.559L1089.98,744.246L1090.38,743.932L1090.78,743.617L1091.18,743.301L1091.58,742.983L1091.97,742.664L1092.37,742.345L1092.77,742.024L1093.16,741.702L1093.56,741.378L1093.95,741.054L1094.34,740.728L1094.73,740.401L1095.12,740.073L1095.51,739.744L1095.9,739.414L1096.28,739.083L1096.67,738.75L1097.05,738.417L1097.44,738.082L1097.82,737.746L1098.2,737.409L1098.58,737.071L1098.96,736.732L1099.34,736.392L1099.72,736.051L1100.09,735.708L1100.47,735.364L1100.84,735.02L1101.22,734.674L1101.59,734.327L1101.96,733.979L1102.33,733.63L1102.7,733.28L1103.07,732.929L1103.43,732.576L1103.8,732.223L1104.16,731.868L1104.53,731.513L1104.89,731.156L1105.25,730.798L1105.61,730.439L1105.97,730.08L1106.33,729.719L1106.69,729.357L1107.04,728.994L1107.4,728.63L1107.75,728.265L1108.11,727.898L1108.46,727.531L1108.81,727.163L1109.16,726.794L1109.51,726.423L1109.86,726.052L1110.2,725.68L1110.55,725.306L1110.89,724.932L1111.23,724.556L1111.58,724.18L1111.92,723.802L1112.26,723.423L1112.6,723.044L1112.93,722.663L1113.27,722.282L1113.6,721.899L1113.94,721.516L1114.27,721.131L1114.6,720.746L1114.93,720.359L1115.26,719.971L1115.59,719.583L1115.92,719.193L1116.24,718.803L1116.57,718.411L1116.89,718.019L1117.21,717.626L1117.54,717.231L1117.86,716.836L1118.17,716.439L1118.49,716.042L1118.81,715.644L1119.12,715.244L1119.44,714.844L1119.75,714.443L1120.06,714.041L1120.37,713.638L1120.68,713.234L1120.99,712.829L1121.3,712.423L1121.6,712.016L1121.91,711.609L1122.21,711.2L1122.51,710.79L1122.81,710.38L1123.11,709.968L1123.41,709.556L1123.71,709.143L1124.01,708.729L1124.3,708.313L1124.6,707.897L1124.89,707.481L1125.18,707.063L1125.47,706.644L1125.76,706.224L1126.04,705.803L1126.33,705.382L1126.62,704.96L1126.9,704.537L1127.18,704.113L1127.46,703.688L1127.74,703.262L1128.02,702.835L1128.3,702.407L1128.58,701.979L1128.85,701.549L1129.12,701.12L1129.39,700.688L1129.67,700.256L1129.94,699.823L1130.2,699.39L1130.47,698.956L1130.74,698.52L1131,698.084L1131.27,697.647L1131.53,697.209L1131.79,696.77L1132.05,696.33L1132.31,695.89L1132.56,695.449L1132.82,695.006L1133.07,694.564L1133.32,694.12L1133.58,693.675L1133.83,693.23L1134.08,692.784L1134.32,692.337L1134.57,691.889L1134.81,691.44L1135.06,690.991L1135.3,690.541L1135.54,690.09L1135.78,689.638L1136.02,689.186L1136.26,688.732L1136.49,688.277L1136.73,687.822L1136.96,687.367L1137.19,686.91L1137.42,686.453L1137.65,685.995L1137.88,685.536L1138.1,685.076L1138.33,684.616L1138.55,684.154L1138.77,683.692L1138.99,683.23L1139.21,682.766L1139.43,682.302L1139.64,681.837L1139.86,681.371L1140.07,680.905L1140.29,680.437L1140.5,679.969L1140.71,679.501L1140.91,679.031L1141.12,678.561L1141.33,678.09L1141.53,677.618L1141.73,677.146L1141.93,676.673L1142.13,676.199L1142.33,675.724L1142.53,675.249L1142.72,674.772L1142.92,674.296L1143.11,673.818L1143.3,673.34L1143.49,672.862L1143.68,672.382L1143.87,671.902L1144.05,671.42L1144.24,670.939L1144.42,670.457L1144.6,669.973L1144.78,669.489L1144.96,669.005L1145.13,668.52L1145.31,668.034L1145.48,667.548L1145.65,667.061L1145.82,666.573L1145.99,666.084L1146.16,665.595L1146.33,665.106L1146.49,664.615L1146.66,664.123L1146.82,663.632L1146.98,663.139L1147.14,662.646L1147.3,662.152L1147.45,661.658L1147.61,661.162L1147.76,660.667L1147.91,660.171L1148.06,659.673L1148.21,659.176L1148.36,658.678L1148.5,658.178L1148.64,657.679L1148.79,657.178L1148.93,656.678L1149.07,656.176L1149.21,655.674L1149.34,655.171L1149.48,654.668L1149.61,654.164L1149.74,653.66L1149.87,653.155L1150,652.649L1150.13,652.143L1150.26,651.635L1150.38,651.128L1150.5,650.62L1150.62,650.111L1150.74,649.601L1150.86,649.092L1150.98,648.581L1151.09,648.069L1151.2,647.558L1151.32,647.046L1151.43,646.533L1151.54,646.019L1151.64,645.505L1151.75,644.991L1151.85,644.475L1151.95,643.959L1152.05,643.443L1152.15,642.926L1152.25,642.408L1152.35,641.891L1152.44,641.372L1152.53,640.852L1152.62,640.333L1152.71,639.813L1152.8,639.292L1152.89,638.771L1152.97,638.249L1153.06,637.726L1153.14,637.203L1153.22,636.68L1153.3,636.155L1153.37,635.631L1153.45,635.106L1153.52,634.58L1153.59,634.054L1153.66,633.527L1153.73,632.999L1153.8,632.472L1153.86,631.944L1153.93,631.415L1153.99,630.885L1154.05,630.355L1154.11,629.825L1154.16,629.294L1154.22,628.763L1154.27,628.231L1154.33,627.698L1154.38,627.165L1154.42,626.632L1154.47,626.098L1154.52,625.563L1154.56,625.029L1154.6,624.493L1154.64,623.957L1154.68,623.421L1154.72,622.884L1154.75,622.346L1154.79,621.808L1154.82,621.27L1154.85,620.731L1154.88,620.192L1154.9,619.653L1154.93,619.112L1154.95,618.571L1154.98,618.03L1155,617.489L1155.01,616.946L1155.03,616.404L1155.04,615.861L1155.06,615.317L1155.07,614.773L1155.08,614.229L1155.09,613.684L1155.09,613.138L1155.1,612.593L1155.1,612.047L1155.1,611.5L1155.1,610.953L1155.1,610.407L1155.09,609.862L1155.09,609.316L1155.08,608.771L1155.07,608.227L1155.06,607.683L1155.04,607.139L1155.03,606.596L1155.01,606.054L1155,605.511L1154.98,604.97L1154.95,604.429L1154.93,603.888L1154.9,603.347L1154.88,602.808L1154.85,602.269L1154.82,601.73L1154.79,601.192L1154.75,600.654L1154.72,600.116L1154.68,599.579L1154.64,599.043L1154.6,598.507L1154.56,597.971L1154.52,597.437L1154.47,596.902L1154.42,596.368L1154.38,595.835L1154.33,595.302L1154.27,594.769L1154.22,594.237L1154.16,593.706L1154.11,593.175L1154.05,592.645L1153.99,592.115L1153.93,591.585L1153.86,591.056L1153.8,590.528L1153.73,590.001L1153.66,589.473L1153.59,588.946L1153.52,588.42L1153.45,587.894L1153.37,587.369L1153.3,586.845L1153.22,586.32L1153.14,585.797L1153.06,585.274L1152.97,584.751L1152.89,584.229L1152.8,583.708L1152.71,583.187L1152.62,582.667L1152.53,582.148L1152.44,581.628L1152.35,581.109L1152.25,580.592L1152.15,580.074L1152.05,579.557L1151.95,579.041L1151.85,578.525L1151.75,578.009L1151.64,577.495L1151.54,576.981L1151.43,576.467L1151.32,575.954L1151.2,575.442L1151.09,574.931L1150.98,574.419L1150.86,573.908L1150.74,573.399L1150.62,572.889L1150.5,572.38L1150.38,571.872L1150.26,571.365L1150.13,570.857L1150,570.351L1149.87,569.845L1149.74,569.34L1149.61,568.836L1149.48,568.332L1149.34,567.829L1149.21,567.326L1149.07,566.824L1148.93,566.322L1148.79,565.822L1148.64,565.321L1148.5,564.822L1148.36,564.322L1148.21,563.824L1148.06,563.327L1147.91,562.829L1147.76,562.333L1147.61,561.838L1147.45,561.342L1147.3,560.848L1147.14,560.354L1146.98,559.861L1146.82,559.368L1146.66,558.877L1146.49,558.385L1146.33,557.894L1146.16,557.405L1145.99,556.916L1145.82,556.427L1145.65,555.939L1145.48,555.452L1145.31,554.966L1145.13,554.48L1144.96,553.995L1144.78,553.511L1144.6,553.027L1144.42,552.543L1144.24,552.061L1144.05,551.58L1143.87,551.098L1143.68,550.618L1143.49,550.138L1143.3,549.66L1143.11,549.182L1142.92,548.704L1142.72,548.228L1142.53,547.751L1142.33,547.276L1142.13,546.801L1141.93,546.327L1141.73,545.854L1141.53,545.382L1141.33,544.91L1141.12,544.439L1140.91,543.969L1140.71,543.499L1140.5,543.031L1140.29,542.563L1140.07,542.095L1139.86,541.629L1139.64,541.163L1139.43,540.698L1139.21,540.234L1138.99,539.77L1138.77,539.308L1138.55,538.846L1138.33,538.384L1138.1,537.924L1137.88,537.464L1137.65,537.005L1137.42,536.547L1137.19,536.09L1136.96,535.633L1136.73,535.178L1136.49,534.723L1136.26,534.268L1136.02,533.815L1135.78,533.362L1135.54,532.91L1135.3,532.459L1135.06,532.009L1134.81,531.56L1134.57,531.111L1134.32,530.663L1134.08,530.216L1133.83,529.77L1133.58,529.325L1133.32,528.88L1133.07,528.436L1132.82,527.994L1132.56,527.551L1132.31,527.11L1132.05,526.67L1131.79,526.23L1131.53,525.791L1131.27,525.353L1131,524.917L1130.74,524.48L1130.47,524.044L1130.2,523.61L1129.94,523.177L1129.67,522.744L1129.39,522.312L1129.12,521.88L1128.85,521.451L1128.58,521.021L1128.3,520.593L1128.02,520.165L1127.74,519.738L1127.46,519.312L1127.18,518.887L1126.9,518.463L1126.62,518.04L1126.33,517.618L1126.04,517.196L1125.76,516.776L1125.47,516.356L1125.18,515.937L1124.89,515.52L1124.6,515.103L1124.3,514.687L1124.01,514.271L1123.71,513.857L1123.41,513.444L1123.11,513.032L1122.82,512.62L1122.51,512.21L1122.21,511.8L1121.91,511.391L1121.6,510.984L1121.3,510.577L1120.99,510.171L1120.68,509.766L1120.37,509.362L1120.06,508.959L1119.75,508.557L1119.44,508.156L1119.12,507.756L1118.81,507.357L1118.49,506.958L1118.17,506.561L1117.86,506.164L1117.54,505.769L1117.21,505.375L1116.89,504.981L1116.57,504.589L1116.24,504.197L1115.92,503.807L1115.59,503.417L1115.26,503.029L1114.93,502.641L1114.6,502.254L1114.27,501.869L1113.94,501.484L1113.6,501.101L1113.27,500.718L1112.93,500.337L1112.6,499.956L1112.26,499.576L1111.92,499.198L1111.58,498.82L1111.23,498.444L1110.89,498.068L1110.55,497.694L1110.2,497.32L1109.86,496.948L1109.51,496.577L1109.16,496.206L1108.81,495.837L1108.46,495.469L1108.11,495.102L1107.75,494.736L1107.4,494.37L1107.05,494.006L1106.69,493.643L1106.33,493.281L1105.97,492.92L1105.61,492.561L1105.25,492.202L1104.89,491.844L1104.53,491.487L1104.16,491.132L1103.8,490.777L1103.43,490.424L1103.07,490.071L1102.7,489.72L1102.33,489.37L1101.96,489.021L1101.59,488.673L1101.22,488.326L1100.84,487.98L1100.47,487.636L1100.09,487.292L1099.72,486.949L1099.34,486.608L1098.96,486.268L1098.58,485.929L1098.2,485.591L1097.82,485.254L1097.44,484.918L1097.05,484.583L1096.67,484.25L1096.28,483.917L1095.9,483.586L1095.51,483.256L1095.12,482.927L1094.73,482.599L1094.34,482.272L1093.95,481.946L1093.56,481.622L1093.16,481.299L1092.77,480.976L1092.37,480.655L1091.97,480.336L1091.58,480.017L1091.18,479.699L1090.78,479.383L1090.38,479.068L1089.98,478.754L1089.57,478.441L1089.17,478.129L1088.77,477.819L1088.36,477.509L1087.95,477.201L1087.55,476.894L1087.14,476.589L1086.73,476.284L1086.32,475.981L1085.91,475.679L1085.5,475.378L1085.09,475.078L1084.67,474.779L1084.26,474.482L1083.84,474.186L1083.42,473.891L1083.01,473.597L1082.59,473.304L1082.17,473.013L1081.75,472.723L1081.33,472.434L1080.9,472.147L1080.48,471.861L1080.06,471.575L1079.63,471.291L1079.21,471.009L1078.78,470.727L1078.35,470.447L1077.92,470.168L1077.5,469.891L1077.07,469.614L1076.63,469.339L1076.2,469.065L1075.77,468.792L1075.34,468.521L1074.9,468.251L1074.47,467.982L1074.03,467.714L1073.59,467.448L1073.15,467.183L1072.72,466.919L1072.28,466.657L1071.84,466.396L1071.39,466.136L1070.95,465.877L1070.51,465.62L1070.07,465.364L1069.62,465.109L1069.17,464.856L1068.73,464.603L1068.28,464.353L1067.83,464.103L1067.38,463.855L1066.93,463.608L1066.48,463.362L1066.03,463.118L1065.58,462.875L1065.13,462.634L1064.67,462.393L1064.22,462.154L1063.76,461.917L1063.31,461.68L1062.85,461.445L1062.39,461.212L1061.93,460.979L1061.47,460.748L1061.01,460.519L1060.55,460.29L1060.09,460.063L1059.63,459.838L1059.16,459.614L1058.7,459.391L1058.24,459.169L1057.77,458.949L1057.3,458.73L1056.84,458.513L1056.37,458.297L1055.9,458.082L1055.43,457.869L1054.96,457.657L1054.49,457.446L1054.02,457.237L1053.54,457.029L1053.07,456.823L1052.6,456.618L1052.12,456.414L1051.65,456.212L1051.17,456.011L1050.69,455.812L1050.22,455.614L1049.74,455.417L1049.26,455.222L1048.78,455.028L1048.3,454.836L1047.82,454.645L1047.34,454.455L1046.85,454.267L1046.37,454.081L1045.88,453.895L1045.4,453.712L1044.91,453.529L1044.43,453.348L1043.94,453.169L1043.45,452.99L1042.96,452.814L1042.48,452.639L1041.99,452.465L1041.5,452.292L1041.01,452.122L1040.51,451.952L1040.02,451.784L1039.53,451.618L1039.03,451.453L1038.54,451.289L1038.04,451.127L1037.55,450.966L1037.05,450.807L1036.56,450.649L1036.06,450.493L1035.56,450.338L1035.06,450.185L1034.56,450.033L1034.06,449.883L1033.56,449.734L1033.06,449.587L1032.56,449.441L1032.05,449.296L1031.55,449.153L1031.04,449.012L1030.54,448.872L1030.03,448.734L1029.53,448.597L1029.02,448.462L1028.51,448.328L1028.01,448.196L1027.5,448.065L1026.99,447.936L1026.48,447.808L1025.97,447.682L1025.46,447.557L1024.94,447.434L1024.43,447.312L1023.92,447.192L1023.41,447.073L1022.89,446.956L1022.38,446.841L1021.86,446.727L1021.35,446.615L1020.83,446.504L1020.31,446.395L1019.8,446.287L1019.28,446.181L1018.76,446.076L1018.24,445.973L1017.72,445.872L1017.2,445.772L1016.68,445.673L1016.16,445.577L1015.63,445.482L1015.11,445.388L1014.59,445.296L1014.06,445.206L1013.54,445.117L1013.01,445.029L1012.49,444.944L1011.96,444.86L1011.44,444.777L1010.91,444.696L1010.38,444.617L1009.85,444.54L1009.32,444.464L1008.79,444.389L1008.26,444.316L1007.73,444.245L1007.2,444.176L1006.67,444.108L1006.14,444.041L1005.61,443.977L1005.07,443.913L1004.54,443.852L1004.01,443.792L1003.47,443.734L1002.94,443.678L1002.4,443.623L1001.86,443.569L1001.33,443.518L1000.79,443.468L1000.25,443.42L999.715,443.373L999.176,443.328L998.637,443.285L998.097,443.243L997.557,443.203L997.016,443.165L996.475,443.128L995.933,443.093L995.391,443.06L994.848,443.028L994.305,442.998L993.762,442.97L993.218,442.944L992.673,442.919L992.128,442.896L991.582,442.874L991.036,442.854L990.49,442.836L989.943,442.82L989.396,442.805L988.848,442.792L988.299,442.781L987.751,442.772L987.201,442.764L986.652,442.758L986.102,442.753L985.551,442.751L985,442.75L984.449,442.751Z" style="fill:rgb(90,236,161);"/>
                </g>
                <g transform="matrix(0.7975,0,0,0.5225,146.766,194.18)">
                    <path d="M974,779L999.465,779C999.465,779 999.088,670.421 999.013,648.74C999.005,646.328 999.868,643.995 1001.45,642.169C1013.18,628.579 1064.22,569.486 1089.38,540.356C1091.92,537.406 1092.52,533.246 1090.92,529.696C1089.31,526.146 1085.79,523.852 1081.89,523.82C1036.65,523.443 932.336,522.574 886.179,522.189C882.217,522.156 878.609,524.466 876.98,528.078C875.351,531.69 876.009,535.924 878.657,538.872C905.353,568.588 959.108,628.423 971.439,642.149C973.088,643.985 974,646.365 974,648.832C974,670.726 974,779 974,779" style="fill:rgb(90,236,161);"/>
                </g>
                <g transform="matrix(0.7975,0,0,0.5225,156.735,190.523)">
                    <path d="M1068,481L974,584" style="fill:none;stroke:rgb(90,236,161);stroke-width:20px;"/>
                </g>
            </g>
        </g>
    </g>
</svg>
